<svg id="visual" viewBox="0 0 900 600" width="900" height="600"
  xmlns="http://www.w3.org/2000/svg"
  xmlns:xlink="http://www.w3.org/1999/xlink" version="1.1">
  <path d="M0 406L21.5 407.3C43 408.7 86 411.3 128.8 403.3C171.7 395.3 214.3 376.7 257.2 376.3C300 376 343 394 385.8 399C428.7 404 471.3 396 514.2 386.2C557 376.3 600 364.7 642.8 372.7C685.7 380.7 728.3 408.3 771.2 419.3C814 430.3 857 424.7 878.5 421.8L900 419L900 601L878.5 601C857 601 814 601 771.2 601C728.3 601 685.7 601 642.8 601C600 601 557 601 514.2 601C471.3 601 428.7 601 385.8 601C343 601 300 601 257.2 601C214.3 601 171.7 601 128.8 601C86 601 43 601 21.5 601L0 601Z" fill="#08c6ab"></path>
  <path d="M0 442L21.5 440.3C43 438.7 86 435.3 128.8 432C171.7 428.7 214.3 425.3 257.2 420.2C300 415 343 408 385.8 404C428.7 400 471.3 399 514.2 408.2C557 417.3 600 436.7 642.8 434.3C685.7 432 728.3 408 771.2 403C814 398 857 412 878.5 419L900 426L900 601L878.5 601C857 601 814 601 771.2 601C728.3 601 685.7 601 642.8 601C600 601 557 601 514.2 601C471.3 601 428.7 601 385.8 601C343 601 300 601 257.2 601C214.3 601 171.7 601 128.8 601C86 601 43 601 21.5 601L0 601Z" fill="#00c2cf"></path>
  <path d="M0 416L21.5 427.3C43 438.7 86 461.3 128.8 465.5C171.7 469.7 214.3 455.3 257.2 452C300 448.7 343 456.3 385.8 452.3C428.7 448.3 471.3 432.7 514.2 427.7C557 422.7 600 428.3 642.8 428.8C685.7 429.3 728.3 424.7 771.2 427C814 429.3 857 438.7 878.5 443.3L900 448L900 601L878.5 601C857 601 814 601 771.2 601C728.3 601 685.7 601 642.8 601C600 601 557 601 514.2 601C471.3 601 428.7 601 385.8 601C343 601 300 601 257.2 601C214.3 601 171.7 601 128.8 601C86 601 43 601 21.5 601L0 601Z" fill="#00baec"></path>
  <path d="M0 450L21.5 450.3C43 450.7 86 451.3 128.8 457.3C171.7 463.3 214.3 474.7 257.2 484C300 493.3 343 500.7 385.8 498.7C428.7 496.7 471.3 485.3 514.2 474.8C557 464.3 600 454.7 642.8 459.7C685.7 464.7 728.3 484.3 771.2 489.8C814 495.3 857 486.7 878.5 482.3L900 478L900 601L878.5 601C857 601 814 601 771.2 601C728.3 601 685.7 601 642.8 601C600 601 557 601 514.2 601C471.3 601 428.7 601 385.8 601C343 601 300 601 257.2 601C214.3 601 171.7 601 128.8 601C86 601 43 601 21.5 601L0 601Z" fill="#00adfa"></path>
  <path d="M0 507L21.5 505.3C43 503.7 86 500.3 128.8 499.8C171.7 499.3 214.3 501.7 257.2 502.3C300 503 343 502 385.8 499.3C428.7 496.7 471.3 492.3 514.2 495C557 497.7 600 507.3 642.8 512.3C685.7 517.3 728.3 517.7 771.2 515C814 512.3 857 506.7 878.5 503.8L900 501L900 601L878.5 601C857 601 814 601 771.2 601C728.3 601 685.7 601 642.8 601C600 601 557 601 514.2 601C471.3 601 428.7 601 385.8 601C343 601 300 601 257.2 601C214.3 601 171.7 601 128.8 601C86 601 43 601 21.5 601L0 601Z" fill="#009dff"></path>
  <path d="M0 510L21.5 510.5C43 511 86 512 128.8 512.2C171.7 512.3 214.3 511.7 257.2 513.3C300 515 343 519 385.8 520.8C428.7 522.7 471.3 522.3 514.2 527.5C557 532.7 600 543.3 642.8 544C685.7 544.7 728.3 535.3 771.2 530.3C814 525.3 857 524.7 878.5 524.3L900 524L900 601L878.5 601C857 601 814 601 771.2 601C728.3 601 685.7 601 642.8 601C600 601 557 601 514.2 601C471.3 601 428.7 601 385.8 601C343 601 300 601 257.2 601C214.3 601 171.7 601 128.8 601C86 601 43 601 21.5 601L0 601Z" fill="#3d88ff"></path>
  <path d="M0 567L21.5 565.5C43 564 86 561 128.8 562.8C171.7 564.7 214.3 571.3 257.2 574.7C300 578 343 578 385.8 575.2C428.7 572.3 471.3 566.7 514.2 561.5C557 556.3 600 551.7 642.8 549.3C685.7 547 728.3 547 771.2 550.7C814 554.3 857 561.7 878.5 565.3L900 569L900 601L878.5 601C857 601 814 601 771.2 601C728.3 601 685.7 601 642.8 601C600 601 557 601 514.2 601C471.3 601 428.7 601 385.8 601C343 601 300 601 257.2 601C214.3 601 171.7 601 128.8 601C86 601 43 601 21.5 601L0 601Z" fill="#726eff"></path>
</svg>