<svg id="visual" viewBox="0 0 900 600" width="900" height="600"
  xmlns="http://www.w3.org/2000/svg"
  xmlns:xlink="http://www.w3.org/1999/xlink" version="1.1">
  <path d="M0 392L21.5 397.8C43 403.7 86 415.3 128.8 423.2C171.7 431 214.3 435 257.2 434.3C300 433.7 343 428.3 385.8 419.5C428.7 410.7 471.3 398.3 514.2 398.7C557 399 600 412 642.8 408.7C685.7 405.3 728.3 385.7 771.2 386.8C814 388 857 410 878.5 421L900 432L900 601L878.5 601C857 601 814 601 771.2 601C728.3 601 685.7 601 642.8 601C600 601 557 601 514.2 601C471.3 601 428.7 601 385.8 601C343 601 300 601 257.2 601C214.3 601 171.7 601 128.8 601C86 601 43 601 21.5 601L0 601Z" fill="#08c6ab"></path>
  <path d="M0 433L21.5 425.2C43 417.3 86 401.7 128.8 399C171.7 396.3 214.3 406.7 257.2 412.5C300 418.3 343 419.7 385.8 425.8C428.7 432 471.3 443 514.2 441.3C557 439.7 600 425.3 642.8 415.7C685.7 406 728.3 401 771.2 406.2C814 411.3 857 426.7 878.5 434.3L900 442L900 601L878.5 601C857 601 814 601 771.2 601C728.3 601 685.7 601 642.8 601C600 601 557 601 514.2 601C471.3 601 428.7 601 385.8 601C343 601 300 601 257.2 601C214.3 601 171.7 601 128.8 601C86 601 43 601 21.5 601L0 601Z" fill="#00c2cf"></path>
  <path d="M0 445L21.5 441.7C43 438.3 86 431.7 128.8 430.8C171.7 430 214.3 435 257.2 441.3C300 447.7 343 455.3 385.8 454.5C428.7 453.7 471.3 444.3 514.2 447.8C557 451.3 600 467.7 642.8 474.3C685.7 481 728.3 478 771.2 476.3C814 474.7 857 474.3 878.5 474.2L900 474L900 601L878.5 601C857 601 814 601 771.2 601C728.3 601 685.7 601 642.8 601C600 601 557 601 514.2 601C471.3 601 428.7 601 385.8 601C343 601 300 601 257.2 601C214.3 601 171.7 601 128.8 601C86 601 43 601 21.5 601L0 601Z" fill="#00baec"></path>
  <path d="M0 463L21.5 464.2C43 465.3 86 467.7 128.8 471.5C171.7 475.3 214.3 480.7 257.2 481.3C300 482 343 478 385.8 474.7C428.7 471.3 471.3 468.7 514.2 470.8C557 473 600 480 642.8 482.3C685.7 484.7 728.3 482.3 771.2 477C814 471.7 857 463.3 878.5 459.2L900 455L900 601L878.5 601C857 601 814 601 771.2 601C728.3 601 685.7 601 642.8 601C600 601 557 601 514.2 601C471.3 601 428.7 601 385.8 601C343 601 300 601 257.2 601C214.3 601 171.7 601 128.8 601C86 601 43 601 21.5 601L0 601Z" fill="#00adfa"></path>
  <path d="M0 486L21.5 484.5C43 483 86 480 128.8 484.5C171.7 489 214.3 501 257.2 509C300 517 343 521 385.8 523.5C428.7 526 471.3 527 514.2 519.3C557 511.7 600 495.3 642.8 494.3C685.7 493.3 728.3 507.7 771.2 515.7C814 523.7 857 525.3 878.5 526.2L900 527L900 601L878.5 601C857 601 814 601 771.2 601C728.3 601 685.7 601 642.8 601C600 601 557 601 514.2 601C471.3 601 428.7 601 385.8 601C343 601 300 601 257.2 601C214.3 601 171.7 601 128.8 601C86 601 43 601 21.5 601L0 601Z" fill="#009dff"></path>
  <path d="M0 555L21.5 547.7C43 540.3 86 525.7 128.8 524.7C171.7 523.7 214.3 536.3 257.2 540.3C300 544.3 343 539.7 385.8 538.3C428.7 537 471.3 539 514.2 540.3C557 541.7 600 542.3 642.8 540C685.7 537.7 728.3 532.3 771.2 533.5C814 534.7 857 542.3 878.5 546.2L900 550L900 601L878.5 601C857 601 814 601 771.2 601C728.3 601 685.7 601 642.8 601C600 601 557 601 514.2 601C471.3 601 428.7 601 385.8 601C343 601 300 601 257.2 601C214.3 601 171.7 601 128.8 601C86 601 43 601 21.5 601L0 601Z" fill="#3d88ff"></path>
  <path d="M0 567L21.5 566C43 565 86 563 128.8 561C171.7 559 214.3 557 257.2 554.2C300 551.3 343 547.7 385.8 549.5C428.7 551.3 471.3 558.7 514.2 562.2C557 565.7 600 565.3 642.8 567.3C685.7 569.3 728.3 573.7 771.2 574.3C814 575 857 572 878.5 570.5L900 569L900 601L878.5 601C857 601 814 601 771.2 601C728.3 601 685.7 601 642.8 601C600 601 557 601 514.2 601C471.3 601 428.7 601 385.8 601C343 601 300 601 257.2 601C214.3 601 171.7 601 128.8 601C86 601 43 601 21.5 601L0 601Z" fill="#726eff"></path>
</svg>