<svg id="visual" viewBox="0 0 900 600" width="900" height="600"
  xmlns="http://www.w3.org/2000/svg"
  xmlns:xlink="http://www.w3.org/1999/xlink" version="1.1">
  <path d="M0 353L21.5 365.2C43 377.3 86 401.7 128.8 404.5C171.7 407.3 214.3 388.7 257.2 384.8C300 381 343 392 385.8 400.3C428.7 408.7 471.3 414.3 514.2 420C557 425.7 600 431.3 642.8 425.3C685.7 419.3 728.3 401.7 771.2 392C814 382.3 857 380.7 878.5 379.8L900 379L900 601L878.5 601C857 601 814 601 771.2 601C728.3 601 685.7 601 642.8 601C600 601 557 601 514.2 601C471.3 601 428.7 601 385.8 601C343 601 300 601 257.2 601C214.3 601 171.7 601 128.8 601C86 601 43 601 21.5 601L0 601Z" fill="#08c6ab"></path>
  <path d="M0 384L21.5 394.8C43 405.7 86 427.3 128.8 440C171.7 452.7 214.3 456.3 257.2 447.2C300 438 343 416 385.8 414.8C428.7 413.7 471.3 433.3 514.2 434.5C557 435.7 600 418.3 642.8 411.7C685.7 405 728.3 409 771.2 411.2C814 413.3 857 413.7 878.5 413.8L900 414L900 601L878.5 601C857 601 814 601 771.2 601C728.3 601 685.7 601 642.8 601C600 601 557 601 514.2 601C471.3 601 428.7 601 385.8 601C343 601 300 601 257.2 601C214.3 601 171.7 601 128.8 601C86 601 43 601 21.5 601L0 601Z" fill="#00c2cf"></path>
  <path d="M0 416L21.5 422.3C43 428.7 86 441.3 128.8 441.8C171.7 442.3 214.3 430.7 257.2 424.7C300 418.7 343 418.3 385.8 421.2C428.7 424 471.3 430 514.2 436.7C557 443.3 600 450.7 642.8 457.2C685.7 463.7 728.3 469.3 771.2 472.7C814 476 857 477 878.5 477.5L900 478L900 601L878.5 601C857 601 814 601 771.2 601C728.3 601 685.7 601 642.8 601C600 601 557 601 514.2 601C471.3 601 428.7 601 385.8 601C343 601 300 601 257.2 601C214.3 601 171.7 601 128.8 601C86 601 43 601 21.5 601L0 601Z" fill="#00baec"></path>
  <path d="M0 449L21.5 456.2C43 463.3 86 477.7 128.8 486.7C171.7 495.7 214.3 499.3 257.2 491.8C300 484.3 343 465.7 385.8 459.8C428.7 454 471.3 461 514.2 466.2C557 471.3 600 474.7 642.8 474C685.7 473.3 728.3 468.7 771.2 472.2C814 475.7 857 487.3 878.5 493.2L900 499L900 601L878.5 601C857 601 814 601 771.2 601C728.3 601 685.7 601 642.8 601C600 601 557 601 514.2 601C471.3 601 428.7 601 385.8 601C343 601 300 601 257.2 601C214.3 601 171.7 601 128.8 601C86 601 43 601 21.5 601L0 601Z" fill="#00adfa"></path>
  <path d="M0 524L21.5 521.2C43 518.3 86 512.7 128.8 508.7C171.7 504.7 214.3 502.3 257.2 505.5C300 508.7 343 517.3 385.8 518.5C428.7 519.7 471.3 513.3 514.2 509.3C557 505.3 600 503.7 642.8 501C685.7 498.3 728.3 494.7 771.2 492.3C814 490 857 489 878.5 488.5L900 488L900 601L878.5 601C857 601 814 601 771.2 601C728.3 601 685.7 601 642.8 601C600 601 557 601 514.2 601C471.3 601 428.7 601 385.8 601C343 601 300 601 257.2 601C214.3 601 171.7 601 128.8 601C86 601 43 601 21.5 601L0 601Z" fill="#009dff"></path>
  <path d="M0 546L21.5 545.5C43 545 86 544 128.8 539.5C171.7 535 214.3 527 257.2 522.8C300 518.7 343 518.3 385.8 522.2C428.7 526 471.3 534 514.2 533.8C557 533.7 600 525.3 642.8 524.3C685.7 523.3 728.3 529.7 771.2 533.7C814 537.7 857 539.3 878.5 540.2L900 541L900 601L878.5 601C857 601 814 601 771.2 601C728.3 601 685.7 601 642.8 601C600 601 557 601 514.2 601C471.3 601 428.7 601 385.8 601C343 601 300 601 257.2 601C214.3 601 171.7 601 128.8 601C86 601 43 601 21.5 601L0 601Z" fill="#3d88ff"></path>
  <path d="M0 560L21.5 559.3C43 558.7 86 557.3 128.8 560.3C171.7 563.3 214.3 570.7 257.2 572.2C300 573.7 343 569.3 385.8 568.3C428.7 567.3 471.3 569.7 514.2 566.8C557 564 600 556 642.8 556.3C685.7 556.7 728.3 565.3 771.2 568.3C814 571.3 857 568.7 878.5 567.3L900 566L900 601L878.5 601C857 601 814 601 771.2 601C728.3 601 685.7 601 642.8 601C600 601 557 601 514.2 601C471.3 601 428.7 601 385.8 601C343 601 300 601 257.2 601C214.3 601 171.7 601 128.8 601C86 601 43 601 21.5 601L0 601Z" fill="#726eff"></path>
</svg>