<svg id="visual" viewBox="0 0 900 600" width="900" height="600"
  xmlns="http://www.w3.org/2000/svg"
  xmlns:xlink="http://www.w3.org/1999/xlink" version="1.1">
  <path d="M0 364L21.5 364.5C43 365 86 366 128.8 370.7C171.7 375.3 214.3 383.7 257.2 384.2C300 384.7 343 377.3 385.8 369.8C428.7 362.3 471.3 354.7 514.2 357.3C557 360 600 373 642.8 385.2C685.7 397.3 728.3 408.7 771.2 402.3C814 396 857 372 878.5 360L900 348L900 601L878.5 601C857 601 814 601 771.2 601C728.3 601 685.7 601 642.8 601C600 601 557 601 514.2 601C471.3 601 428.7 601 385.8 601C343 601 300 601 257.2 601C214.3 601 171.7 601 128.8 601C86 601 43 601 21.5 601L0 601Z" fill="#08c6ab"></path>
  <path d="M0 384L21.5 391.7C43 399.3 86 414.7 128.8 420C171.7 425.3 214.3 420.7 257.2 421.3C300 422 343 428 385.8 423.7C428.7 419.3 471.3 404.7 514.2 397.3C557 390 600 390 642.8 390.5C685.7 391 728.3 392 771.2 400.3C814 408.7 857 424.3 878.5 432.2L900 440L900 601L878.5 601C857 601 814 601 771.2 601C728.3 601 685.7 601 642.8 601C600 601 557 601 514.2 601C471.3 601 428.7 601 385.8 601C343 601 300 601 257.2 601C214.3 601 171.7 601 128.8 601C86 601 43 601 21.5 601L0 601Z" fill="#00c2cf"></path>
  <path d="M0 466L21.5 467.2C43 468.3 86 470.7 128.8 468.2C171.7 465.7 214.3 458.3 257.2 448.5C300 438.7 343 426.3 385.8 429C428.7 431.7 471.3 449.3 514.2 454.3C557 459.3 600 451.7 642.8 442.8C685.7 434 728.3 424 771.2 421.5C814 419 857 424 878.5 426.5L900 429L900 601L878.5 601C857 601 814 601 771.2 601C728.3 601 685.7 601 642.8 601C600 601 557 601 514.2 601C471.3 601 428.7 601 385.8 601C343 601 300 601 257.2 601C214.3 601 171.7 601 128.8 601C86 601 43 601 21.5 601L0 601Z" fill="#00baec"></path>
  <path d="M0 488L21.5 487.8C43 487.7 86 487.3 128.8 486C171.7 484.7 214.3 482.3 257.2 475.5C300 468.7 343 457.3 385.8 454.5C428.7 451.7 471.3 457.3 514.2 461.5C557 465.7 600 468.3 642.8 466.7C685.7 465 728.3 459 771.2 457.7C814 456.3 857 459.7 878.5 461.3L900 463L900 601L878.5 601C857 601 814 601 771.2 601C728.3 601 685.7 601 642.8 601C600 601 557 601 514.2 601C471.3 601 428.7 601 385.8 601C343 601 300 601 257.2 601C214.3 601 171.7 601 128.8 601C86 601 43 601 21.5 601L0 601Z" fill="#00adfa"></path>
  <path d="M0 503L21.5 499.3C43 495.7 86 488.3 128.8 486.3C171.7 484.3 214.3 487.7 257.2 492.8C300 498 343 505 385.8 507.8C428.7 510.7 471.3 509.3 514.2 504.3C557 499.3 600 490.7 642.8 486.8C685.7 483 728.3 484 771.2 485.8C814 487.7 857 490.3 878.5 491.7L900 493L900 601L878.5 601C857 601 814 601 771.2 601C728.3 601 685.7 601 642.8 601C600 601 557 601 514.2 601C471.3 601 428.7 601 385.8 601C343 601 300 601 257.2 601C214.3 601 171.7 601 128.8 601C86 601 43 601 21.5 601L0 601Z" fill="#009dff"></path>
  <path d="M0 552L21.5 547.5C43 543 86 534 128.8 528.2C171.7 522.3 214.3 519.7 257.2 523.8C300 528 343 539 385.8 545.2C428.7 551.3 471.3 552.7 514.2 553.3C557 554 600 554 642.8 550.2C685.7 546.3 728.3 538.7 771.2 533.3C814 528 857 525 878.5 523.5L900 522L900 601L878.5 601C857 601 814 601 771.2 601C728.3 601 685.7 601 642.8 601C600 601 557 601 514.2 601C471.3 601 428.7 601 385.8 601C343 601 300 601 257.2 601C214.3 601 171.7 601 128.8 601C86 601 43 601 21.5 601L0 601Z" fill="#3d88ff"></path>
  <path d="M0 563L21.5 564.2C43 565.3 86 567.7 128.8 567.5C171.7 567.3 214.3 564.7 257.2 561.3C300 558 343 554 385.8 554.8C428.7 555.7 471.3 561.3 514.2 562.8C557 564.3 600 561.7 642.8 560.8C685.7 560 728.3 561 771.2 561.8C814 562.7 857 563.3 878.5 563.7L900 564L900 601L878.5 601C857 601 814 601 771.2 601C728.3 601 685.7 601 642.8 601C600 601 557 601 514.2 601C471.3 601 428.7 601 385.8 601C343 601 300 601 257.2 601C214.3 601 171.7 601 128.8 601C86 601 43 601 21.5 601L0 601Z" fill="#726eff"></path>
</svg>