<svg id="visual" viewBox="0 0 900 600" width="900" height="600"
  xmlns="http://www.w3.org/2000/svg"
  xmlns:xlink="http://www.w3.org/1999/xlink" version="1.1">
  <path d="M0 411L21.5 420.2C43 429.3 86 447.7 128.8 455.3C171.7 463 214.3 460 257.2 451.8C300 443.7 343 430.3 385.8 437.7C428.7 445 471.3 473 514.2 487.5C557 502 600 503 642.8 498.7C685.7 494.3 728.3 484.7 771.2 471C814 457.3 857 439.7 878.5 430.8L900 422L900 601L878.5 601C857 601 814 601 771.2 601C728.3 601 685.7 601 642.8 601C600 601 557 601 514.2 601C471.3 601 428.7 601 385.8 601C343 601 300 601 257.2 601C214.3 601 171.7 601 128.8 601C86 601 43 601 21.5 601L0 601Z" fill="#726eff" stroke-linecap="round" stroke-linejoin="miter"></path>
</svg>