<svg id="visual" viewBox="0 0 900 600" width="900" height="600"
  xmlns="http://www.w3.org/2000/svg"
  xmlns:xlink="http://www.w3.org/1999/xlink" version="1.1">
  <path d="M0 442L21.5 438C43 434 86 426 128.8 420.8C171.7 415.7 214.3 413.3 257.2 412.8C300 412.3 343 413.7 385.8 427.8C428.7 442 471.3 469 514.2 484.5C557 500 600 504 642.8 504.3C685.7 504.7 728.3 501.3 771.2 487.2C814 473 857 448 878.5 435.5L900 423L900 601L878.5 601C857 601 814 601 771.2 601C728.3 601 685.7 601 642.8 601C600 601 557 601 514.2 601C471.3 601 428.7 601 385.8 601C343 601 300 601 257.2 601C214.3 601 171.7 601 128.8 601C86 601 43 601 21.5 601L0 601Z" fill="#08c6ab" stroke-linecap="round" stroke-linejoin="miter"></path>
</svg>